<svg width="21" height="21" viewBox="0 0 21 21" fill="none" xmlns="http://www.w3.org/2000/svg">
<circle cx="10.4026" cy="10.4024" r="6.02243" fill="#43CC8A"/>
<path d="M17.8451 3.0617C15.8707 1.08736 13.2456 0 10.4534 0C7.66116 0 5.03609 1.08736 3.0617 3.0617C1.08736 5.03609 0 7.6612 0 10.4534C0 13.2456 1.08736 15.8707 3.0617 17.8451C5.03609 19.8195 7.6612 20.9068 10.4534 20.9068C13.2456 20.9068 15.8707 19.8195 17.8451 17.8451C19.8195 15.8707 20.9068 13.2456 20.9068 10.4534C20.9068 7.6612 19.8195 5.03613 17.8451 3.0617ZM15.4476 7.96554L9.60574 13.8074C9.48614 13.927 9.32938 13.9868 9.17266 13.9868C9.0159 13.9868 8.85914 13.927 8.73954 13.8074L5.45921 10.5272C5.22001 10.288 5.22001 9.90019 5.45921 9.66095C5.69837 9.42174 6.08621 9.42174 6.32541 9.66095L9.17266 12.5082L14.5814 7.09933C14.8206 6.86013 15.2084 6.86013 15.4476 7.09933C15.6868 7.33853 15.6868 7.72633 15.4476 7.96554Z" fill="#C2FFE2"/>
</svg>
