<svg width="16" height="16" viewBox="0 0 16 16" fill="none" xmlns="http://www.w3.org/2000/svg">
<path d="M15.7261 2.86182C15.5804 1.49731 14.5028 0.419434 13.1382 0.273926C9.71606 -0.0913086 6.28394 -0.0913086 2.86194 0.273926C1.49731 0.419556 0.419556 1.49731 0.273926 2.86182C-0.0913086 6.28381 -0.0913086 9.71606 0.273926 13.1381C0.419556 14.5027 1.49731 15.5804 2.86182 15.7261C6.28381 16.0913 9.71606 16.0913 13.1382 15.7261C14.5028 15.5804 15.5804 14.5027 15.7261 13.1381C16.0913 9.71606 16.0913 6.28394 15.7261 2.86182Z" fill="url(#paint0_radial)"/>
<path d="M14.8559 3.44061C14.7267 2.2298 13.7704 1.27338 12.5595 1.1441C9.52289 0.820129 6.47723 0.820129 3.44061 1.1441C2.2298 1.27338 1.27338 2.2298 1.1441 3.44061C0.820129 6.47723 0.820129 9.52289 1.1441 12.5594C1.27338 13.7703 2.2298 14.7267 3.44061 14.8559C6.47723 15.18 9.52289 15.18 12.5594 14.8559C13.7703 14.7267 14.7267 13.7703 14.8559 12.5594C15.18 9.52289 15.18 6.47723 14.8559 3.44061Z" fill="url(#paint1_linear)"/>
<path d="M0.239746 12.8064C0.250732 12.917 0.262085 13.0276 0.273926 13.1382C0.419556 14.5027 1.49731 15.5804 2.86194 15.7261C6.28394 16.0913 9.71619 16.0913 13.1382 15.7261C14.5028 15.5804 15.5804 14.5027 15.7261 13.1382C15.7379 13.0276 15.7493 12.917 15.7604 12.8064H0.239746Z" fill="url(#paint2_linear)"/>
<path d="M15.726 13.1382C15.9222 11.2994 16.0128 9.45774 15.9982 7.61631L12.3409 3.95908C11.884 3.43748 11.2167 3.11192 10.4325 3.08372C8.81982 3.02561 7.20203 3.02854 5.58911 3.08396C4.24951 3.1301 3.31274 4.0305 3.07251 5.35386C3.03015 5.5875 3.00476 5.8242 2.97144 6.05955V9.93919C2.98987 10.0649 3.01697 10.19 3.02539 10.3165C3.0791 11.1214 3.40991 11.8109 3.93958 12.2773L7.66125 15.9989C9.48767 16.0117 11.3142 15.9209 13.1381 15.7262C14.5027 15.5805 15.5803 14.5028 15.726 13.1382Z" fill="url(#paint3_linear)"/>
<path d="M15.7261 13.1382C15.5806 14.5026 14.5026 15.5806 13.1382 15.7261C11.3146 15.9207 9.48767 16.0116 7.6615 15.9988L3.94543 12.2827C4.37622 12.6598 4.93774 12.8894 5.58936 12.9139C7.2019 12.9745 8.82007 12.9729 10.4326 12.9148C11.8911 12.8621 12.9465 11.7826 12.9921 10.3241C13.0406 8.77551 13.0406 7.2229 12.9921 5.67432C12.9713 5.00146 12.7351 4.40942 12.3435 3.96143L15.9984 7.61633C16.0128 9.45752 15.9222 11.2994 15.7261 13.1382Z" fill="url(#paint4_linear)"/>
<path d="M9.88782 6.26746C9.41931 5.75732 8.74707 5.43726 7.99988 5.43726C6.58459 5.43726 5.43713 6.58472 5.43713 8C5.43713 8.74719 5.7572 9.41943 6.26733 9.88794L12.1967 15.8173C12.5105 15.7899 12.8243 15.7595 13.1379 15.7261C14.5026 15.5804 15.5803 14.5027 15.726 13.1381C15.7594 12.8245 15.7898 12.5106 15.8171 12.1968L9.88782 6.26746Z" fill="url(#paint5_linear)"/>
<path d="M15.969 9.72351L11.197 4.95166C11.0857 4.80554 10.9103 4.71069 10.7124 4.71069C10.3757 4.71069 10.1027 4.98364 10.1027 5.32043C10.1027 5.51831 10.1975 5.69373 10.3436 5.80505L15.8837 11.3452C15.9213 10.8048 15.9497 10.2642 15.969 9.72351Z" fill="url(#paint6_linear)"/>
<path d="M2.97144 6.05955C3.00476 5.8242 3.03015 5.5875 3.07251 5.35386C3.31262 4.0305 4.24951 3.1301 5.58911 3.08396C7.20203 3.02854 8.81982 3.02561 10.4325 3.08372C11.8905 3.13621 12.9464 4.2158 12.9919 5.67429C13.0404 7.223 13.0404 8.77549 12.9919 10.3242C12.9464 11.7827 11.8909 12.8622 10.4326 12.9148C8.81995 12.973 7.20178 12.9745 5.58923 12.9139C4.13098 12.8591 3.12292 11.7771 3.02539 10.3164C3.01697 10.19 2.98987 10.0648 2.97144 9.93906C2.97144 8.64585 2.97144 7.35264 2.97144 6.05955ZM8.00122 12.0504C8.73926 12.0504 9.47803 12.0725 10.2151 12.0453C11.3707 12.0024 12.0815 11.3127 12.1085 10.1582C12.142 8.71958 12.142 7.27903 12.1085 5.84031C12.0815 4.68601 11.3702 3.9802 10.2151 3.95567C8.7489 3.92466 7.28113 3.9249 5.81494 3.95567C4.66858 3.97971 3.95569 4.67124 3.92456 5.81284C3.88501 7.26963 3.88501 8.72898 3.92456 10.1858C3.95569 11.3272 4.66858 12.0028 5.81506 12.0453C6.54285 12.0724 7.27246 12.0504 8.00122 12.0504Z" fill="url(#paint7_linear)"/>
<path d="M2.97144 6.05955C3.00476 5.8242 3.03015 5.5875 3.07251 5.35386C3.31262 4.0305 4.24951 3.1301 5.58911 3.08396C7.20203 3.02854 8.81982 3.02561 10.4325 3.08372C11.8905 3.13621 12.9464 4.2158 12.9919 5.67429C13.0404 7.223 13.0404 8.77549 12.9919 10.3242C12.9464 11.7827 11.8909 12.8622 10.4326 12.9148C8.81995 12.973 7.20178 12.9745 5.58923 12.9139C4.13098 12.8591 3.12292 11.7771 3.02539 10.3164C3.01697 10.19 2.98987 10.0648 2.97144 9.93906C2.97144 8.64585 2.97144 7.35264 2.97144 6.05955ZM8.00122 12.0504C8.73926 12.0504 9.47803 12.0725 10.2151 12.0453C11.3707 12.0024 12.0815 11.3127 12.1085 10.1582C12.142 8.71958 12.142 7.27903 12.1085 5.84031C12.0815 4.68601 11.3702 3.9802 10.2151 3.95567C8.7489 3.92466 7.28113 3.9249 5.81494 3.95567C4.66858 3.97971 3.95569 4.67124 3.92456 5.81284C3.88501 7.26963 3.88501 8.72898 3.92456 10.1858C3.95569 11.3272 4.66858 12.0028 5.81506 12.0453C6.54285 12.0724 7.27246 12.0504 8.00122 12.0504Z" fill="white"/>
<path d="M8.00012 5.4375C6.58484 5.4375 5.43738 6.58484 5.43738 8.00012C5.43738 9.41553 6.58484 10.5629 8.00012 10.5629C9.41553 10.5629 10.5629 9.41553 10.5629 8.00012C10.5629 6.58484 9.41553 5.4375 8.00012 5.4375ZM8.00012 9.68054C7.07202 9.68054 6.3197 8.92822 6.3197 8.00012C6.3197 7.07202 7.07202 6.3197 8.00012 6.3197C8.92822 6.3197 9.68054 7.07202 9.68054 8.00012C9.68054 8.92822 8.92822 9.68054 8.00012 9.68054Z" fill="white"/>
<path d="M11.3223 5.32043C11.3223 5.6571 11.0493 5.93005 10.7126 5.93005C10.376 5.93005 10.1029 5.6571 10.1029 5.32043C10.1029 4.98364 10.376 4.71069 10.7126 4.71069C11.0493 4.71069 11.3223 4.98364 11.3223 5.32043Z" fill="white"/>
<defs>
<radialGradient id="paint0_radial" cx="0" cy="0" r="1" gradientUnits="userSpaceOnUse" gradientTransform="translate(3.27991 13.9827) scale(17.6452)">
<stop stop-color="#FAE100"/>
<stop offset="0.0544" stop-color="#FADC04"/>
<stop offset="0.1167" stop-color="#FBCE0E"/>
<stop offset="0.1829" stop-color="#FCB720"/>
<stop offset="0.2514" stop-color="#FE9838"/>
<stop offset="0.3054" stop-color="#FF7950"/>
<stop offset="0.4922" stop-color="#FF1C74"/>
<stop offset="1" stop-color="#6C1CD1"/>
</radialGradient>
<linearGradient id="paint1_linear" x1="6.13671" y1="6.95193" x2="-20.9692" y2="-8.29514" gradientUnits="userSpaceOnUse">
<stop stop-color="#A1B5D8" stop-opacity="0"/>
<stop offset="0.3094" stop-color="#90A2BD" stop-opacity="0.309804"/>
<stop offset="0.7554" stop-color="#7C8B9C" stop-opacity="0.756863"/>
<stop offset="1" stop-color="#748290"/>
</linearGradient>
<linearGradient id="paint2_linear" x1="8.00001" y1="14.1239" x2="8.00001" y2="16.6179" gradientUnits="userSpaceOnUse">
<stop stop-color="#FAE100" stop-opacity="0"/>
<stop offset="0.3068" stop-color="#FCA800" stop-opacity="0.305882"/>
<stop offset="0.6275" stop-color="#FE7300" stop-opacity="0.627451"/>
<stop offset="0.8685" stop-color="#FF5200" stop-opacity="0.866667"/>
<stop offset="1" stop-color="#FF4500"/>
</linearGradient>
<linearGradient id="paint3_linear" x1="7.08964" y1="7.06722" x2="3.1299" y2="3.10748" gradientUnits="userSpaceOnUse">
<stop stop-color="#833AB4" stop-opacity="0"/>
<stop offset="1" stop-color="#833AB4"/>
</linearGradient>
<linearGradient id="paint4_linear" x1="10.9656" y1="14.634" x2="8.98924" y2="5.3168" gradientUnits="userSpaceOnUse">
<stop stop-color="#833AB4" stop-opacity="0"/>
<stop offset="1" stop-color="#833AB4"/>
</linearGradient>
<linearGradient id="paint5_linear" x1="11.7175" y1="11.7177" x2="3.77929" y2="3.7794" gradientUnits="userSpaceOnUse">
<stop stop-color="#833AB4" stop-opacity="0"/>
<stop offset="1" stop-color="#833AB4"/>
</linearGradient>
<linearGradient id="paint6_linear" x1="12.3065" y1="6.91447" x2="9.68143" y2="4.28945" gradientUnits="userSpaceOnUse">
<stop stop-color="#833AB4" stop-opacity="0"/>
<stop offset="1" stop-color="#833AB4"/>
</linearGradient>
<linearGradient id="paint7_linear" x1="11.1767" y1="4.8454" x2="4.70433" y2="11.3178" gradientUnits="userSpaceOnUse">
<stop stop-color="#833AB4"/>
<stop offset="0.0922" stop-color="#9C3495"/>
<stop offset="0.2927" stop-color="#DC2546"/>
<stop offset="0.392" stop-color="#FD1D1D"/>
<stop offset="0.5589" stop-color="#FC6831"/>
<stop offset="0.6887" stop-color="#FC9B40"/>
<stop offset="0.7521" stop-color="#FCAF45"/>
<stop offset="0.7806" stop-color="#FDB750"/>
<stop offset="0.8656" stop-color="#FECB6A"/>
<stop offset="0.9415" stop-color="#FFD87A"/>
<stop offset="1" stop-color="#FFDC80"/>
</linearGradient>
</defs>
</svg>
