<svg width="17" height="16" viewBox="0 0 17 16" fill="none" xmlns="http://www.w3.org/2000/svg">
<path d="M8.59998 16C13.0183 16 16.6 12.4183 16.6 8C16.6 3.58172 13.0183 0 8.59998 0C4.1817 0 0.599976 3.58172 0.599976 8C0.599976 12.4183 4.1817 16 8.59998 16Z" fill="#55ACEE"/>
<path d="M13.5002 5.74926C13.1574 5.90128 12.7886 6.0041 12.4019 6.05001C12.7968 5.81343 13.0998 5.43908 13.2428 4.99229C12.8733 5.21148 12.4639 5.37049 12.0285 5.4562C11.6797 5.0847 11.1827 4.85254 10.6324 4.85254C9.57653 4.85254 8.72017 5.7089 8.72017 6.76476C8.72017 6.91464 8.73714 7.06053 8.76994 7.20057C7.18072 7.12086 5.77162 6.35962 4.82841 5.20236C4.66384 5.48472 4.56943 5.81343 4.56943 6.16382C4.56943 6.82708 4.90727 7.41263 5.42009 7.75546C5.10678 7.74562 4.81172 7.65963 4.55403 7.51602C4.55389 7.52415 4.55389 7.53228 4.55389 7.54026C4.55389 8.46679 5.21331 9.23958 6.08792 9.41513C5.92763 9.45905 5.75835 9.48229 5.58423 9.48229C5.46073 9.48229 5.34108 9.47046 5.22443 9.44821C5.46772 10.2077 6.17377 10.7606 7.01073 10.7762C6.35616 11.2891 5.53175 11.5947 4.6356 11.5947C4.48159 11.5947 4.329 11.5858 4.17969 11.5679C5.02549 12.1107 6.03088 12.4271 7.1107 12.4271C10.628 12.4271 12.5515 9.51338 12.5515 6.98623C12.5515 6.90338 12.5496 6.82081 12.5459 6.73895C12.9198 6.46942 13.244 6.13273 13.5002 5.74926Z" fill="#F1F2F2"/>
</svg>
